<?xml version="1.0" encoding="utf-8"?>
<!-- Generator: Adobe Illustrator 21.1.0, SVG Export Plug-In . SVG Version: 6.00 Build 0)  -->
<svg version="1.1" id="Layer_1" xmlns="http://www.w3.org/2000/svg" xmlns:xlink="http://www.w3.org/1999/xlink" x="0px" y="0px"
	 viewBox="0 0 618 400" style="enable-background:new 0 0 618 400;" xml:space="preserve">
<style type="text/css">
	.st0{fill:#f2f2f2;}
</style>


	<g>
		<path class="st0" d="M461.9,122.9c-29.5,0-52.6,26.2-53.5,58.6c-1.6,55.8,72.8,75.1,97.2,44.3v-23.7c0,0-7.7,13.4-37.8,13.4
			c-30.1,0-31.1-22.4-31.1-22.4h77.6c0.7-3.8,1.1-7.7,1.1-11.7C515.3,149.1,491.4,122.9,461.9,122.9z M436.3,173.4
			c3.2-12.5,13.8-21.6,26.3-21.6c12.6,0,23.2,9.2,26.3,21.6H436.3z M76.9,139.5c-8.2-9.2-19-14.8-30.9-14.8c-25.4,0-46,25.7-46,57.5
			c0,31.7,20.6,57.5,46.1,57.5c11.9,0,22.7-5.6,30.9-14.8V239h29.6V125.3H76.9V139.5z M54.9,214.2c-13,0-23.6-14.1-23.6-31.5
			s10.6-31.5,23.6-31.5s23.6,14.1,23.6,31.5C78.4,200.1,67.9,214.2,54.9,214.2z M274.5,225.8v-58.2l0,0v-16.4
			c0,0-1.9-26.7-29.7-26.7C217,124.5,211,140,211,140s-8.1-16.9-29.2-16.9c-17.4,0-26.7,10.1-29.5,13.7v-12.1h-29v113.9h29v-74.3
			c1.8-4.6,6.8-13.7,17.2-13.7c11.4,0,14.8,9.4,15.5,15v60c1.1,5.7,4.4,9.7,8.5,13h29c-4.6-3.8-7.5-8-8.5-12.8v-56.1l0,0
			c0,0-0.9-18.1,16.4-19c12.5-0.6,14.8,10.8,15.1,17.1v3.4c0,0.4,0,0.6,0,0.6l0,0v53.7c1.1,5.7,4.4,9.7,8.5,13h29
			C278.4,234.8,275.4,230.6,274.5,225.8z M354.8,124.7c-11.9,0-22.7,5.6-30.9,14.8V90.2h-29.6V239h29.6v-14.2
			c8.2,9.2,19,14.8,30.9,14.8c25.4,0,46.1-25.7,46.1-57.5C400.8,150.4,380.2,124.7,354.8,124.7z M346,214.2
			c-13,0-23.6-14.1-23.6-31.5s10.6-31.5,23.6-31.5s23.6,14.1,23.6,31.5C369.5,200.1,359,214.2,346,214.2z M584.5,124.8L563.1,205
			l-21.5-80.2h-34.3l38,113.9h32.6L618,124.8H584.5z"/>
	</g>

		

</svg>
